<svg width="80" height="80" xmlns="http://www.w3.org/2000/svg">

 <g>
  <title>background</title>
  <rect fill="none" id="canvas_background" height="402" width="582" y="-1" x="-1"/>
 </g>
 <g>
  <title>Layer 1</title>
  <g id="svg_1">
   <g id="svg_2">
    <path id="svg_3" fill="#8BB7F0" d="m32.105,25.5c-1.988,0 -3.605,-1.57 -3.605,-3.5s1.617,-3.5 3.605,-3.5l43.789,0c1.988,0 3.605,1.57 3.605,3.5s-1.617,3.5 -3.605,3.5l-43.789,0z"/>
    <g id="svg_4">
     <path id="svg_5" fill="#4E7AB5" d="m75.895,19c1.712,0 3.105,1.346 3.105,3s-1.393,3 -3.105,3l-43.79,0c-1.712,0 -3.105,-1.346 -3.105,-3s1.393,-3 3.105,-3l43.79,0m0,-1l-43.79,0c-2.267,0 -4.105,1.791 -4.105,4s1.838,4 4.105,4l43.79,0c2.267,0 4.105,-1.791 4.105,-4s-1.838,-4 -4.105,-4l0,0z"/>
    </g>
   </g>
   <g id="svg_6">
    <path id="svg_7" fill="#66798F" d="m76,36l0,6c0,1.105 -0.895,2 -2,2l-4,0c-1.105,0 -2,-0.895 -2,-2l0,-6l8,0z"/>
   </g>
   <g id="svg_8">
    <g id="svg_9">
     <path id="svg_10" fill="#8BB7F0" d="m32.5,39.5l0,-12.963l1.956,-4.331l4.024,-14.069c0.632,-1.893 3.266,-3.637 5.52,-3.637l20,0c2.254,0 4.888,1.744 5.525,3.658l3.994,13.979l1.98,4.399l0,12.964l-42.999,0z"/>
    </g>
    <g id="svg_11">
     <path id="svg_12" fill="#4E7AB5" d="m64,5c2.028,0 4.483,1.612 5.038,3.275l4,14l0.02,0.07l0.03,0.067l1.912,4.232l0,12.356l-42,0l0,-12.356l1.911,-4.232l0.03,-0.067l0.02,-0.07l3.987,-13.958c0.569,-1.705 3.024,-3.317 5.052,-3.317l20,0m0,-1l-20,0c-2.337,0 -5.261,1.783 -6,4l-4,14l-2,4.429l0,13.571l44,0l0,-13.571l-2,-4.429l-4,-14c-0.739,-2.217 -3.663,-4 -6,-4l0,0z"/>
    </g>
   </g>
   <circle id="svg_13" fill="#FFFFFF" r="3" cy="29" cx="69"/>
   <g id="svg_14">
    <path id="svg_15" fill="#C2E8FF" d="m35.234,19.5l3.246,-11.363c0.702,-2.098 2.667,-3.637 4.67,-3.637l21.7,0c2.003,0 3.969,1.539 4.676,3.658l3.24,11.342l-37.532,0z"/>
    <g id="svg_16">
     <path id="svg_17" fill="#4E7AB5" d="m64.85,5c1.794,0 3.561,1.395 4.188,3.275l3.065,10.725l-36.206,0l3.052,-10.684c0.64,-1.921 2.407,-3.316 4.201,-3.316l21.7,0m0,-1l-21.7,0c-2.337,0 -4.411,1.783 -5.15,4l-3.429,12l38.857,0l-3.428,-12c-0.739,-2.217 -2.813,-4 -5.15,-4l0,0z"/>
    </g>
   </g>
   <rect id="svg_18" fill="#8BB7F0" height="4" width="44.044" y="20" x="31.956"/>
   <g id="svg_19">
    <path id="svg_20" fill="#C8D1DB" d="m42.696,39.5l3.202,-9.484c0.303,-0.908 1.148,-1.516 2.102,-1.516l12,0c0.954,0 1.799,0.608 2.101,1.514l3.203,9.486l-22.608,0z"/>
    <g id="svg_21">
     <path id="svg_22" fill="#66798F" d="m60,29c0.739,0 1.393,0.471 1.627,1.176l2.98,8.824l-21.214,0l2.981,-8.828c0.233,-0.701 0.887,-1.172 1.626,-1.172l12,0m0,-1l-12,0c-1.168,0 -2.206,0.748 -2.575,1.856l-3.425,10.144l24,0l-3.425,-10.144c-0.369,-1.108 -1.407,-1.856 -2.575,-1.856l0,0z"/>
    </g>
   </g>
  </g>
  <g id="svg_23">
   <path id="svg_24" fill="#66798F" d="m48,54l0,6c0,1.105 -0.895,2 -2,2l-4,0c-1.105,0 -2,-0.895 -2,-2l0,-6l8,0z"/>
  </g>
  <g id="svg_25">
   <g id="svg_26">
    <path id="svg_27" fill="#BAE0BD" d="m4.105,43.5c-1.988,0 -3.605,-1.57 -3.605,-3.5s1.617,-3.5 3.605,-3.5l43.789,0c1.988,0 3.605,1.57 3.605,3.5s-1.617,3.5 -3.605,3.5l-43.789,0z"/>
    <g id="svg_28">
     <path id="svg_29" fill="#5E9C76" d="m47.895,37c1.712,0 3.105,1.346 3.105,3s-1.393,3 -3.105,3l-43.79,0c-1.712,0 -3.105,-1.346 -3.105,-3s1.393,-3 3.105,-3l43.79,0m0,-1l-43.79,0c-2.267,0 -4.105,1.791 -4.105,4s1.838,4 4.105,4l43.79,0c2.267,0 4.105,-1.791 4.105,-4s-1.838,-4 -4.105,-4l0,0z"/>
    </g>
   </g>
   <g id="svg_30">
    <path id="svg_31" fill="#66798F" d="m12,54l0,6c0,1.105 -0.895,2 -2,2l-4,0c-1.105,0 -2,-0.895 -2,-2l0,-6l8,0z"/>
   </g>
   <g id="svg_32">
    <g id="svg_33">
     <path id="svg_34" fill="#BAE0BD" d="m4.5,57.5l0,-12.963l1.956,-4.331l4.024,-14.068c0.632,-1.894 3.266,-3.638 5.52,-3.638l20,0c2.254,0 4.888,1.744 5.525,3.658l3.994,13.979l1.98,4.399l0,12.964l-42.999,0z"/>
    </g>
    <g id="svg_35">
     <path id="svg_36" fill="#5E9C76" d="m36,23c2.028,0 4.483,1.612 5.038,3.275l4,14l0.02,0.07l0.03,0.067l1.912,4.232l0,12.356l-42,0l0,-12.356l1.911,-4.232l0.03,-0.067l0.02,-0.07l3.987,-13.958c0.569,-1.705 3.024,-3.317 5.052,-3.317l20,0m0,-1l-20,0c-2.337,0 -5.261,1.783 -6,4l-4,14l-2,4.429l0,13.571l44,0l0,-13.571l-2,-4.429l-4,-14c-0.739,-2.217 -3.663,-4 -6,-4l0,0z"/>
    </g>
   </g>
   <circle id="svg_37" fill="#FFFFFF" r="3" cy="47" cx="41"/>
   <circle id="svg_38" fill="#FFFFFF" r="3" cy="47" cx="11"/>
   <g id="svg_39">
    <path id="svg_40" fill="#C2E8FF" d="m7.234,37.5l3.246,-11.363c0.701,-2.099 2.667,-3.637 4.67,-3.637l21.7,0c2.003,0 3.969,1.539 4.676,3.658l3.24,11.342l-37.532,0z"/>
    <g id="svg_41">
     <path id="svg_42" fill="#5E9C76" d="m36.85,23c1.794,0 3.561,1.395 4.188,3.275l3.065,10.725l-36.206,0l3.052,-10.684c0.64,-1.921 2.407,-3.316 4.201,-3.316l21.7,0m0,-1l-21.7,0c-2.337,0 -4.411,1.783 -5.15,4l-3.429,12l38.857,0l-3.428,-12c-0.739,-2.217 -2.813,-4 -5.15,-4l0,0z"/>
    </g>
   </g>
   <rect id="svg_43" fill="#BAE0BD" height="4" width="44.044" y="38" x="3.956"/>
   <g id="svg_44">
    <path id="svg_45" fill="#C8D1DB" d="m14.696,57.5l3.202,-9.484c0.303,-0.908 1.148,-1.516 2.102,-1.516l12,0c0.954,0 1.799,0.608 2.101,1.514l3.203,9.486l-22.608,0z"/>
    <g id="svg_46">
     <path id="svg_47" fill="#66798F" d="m32,47c0.739,0 1.393,0.471 1.627,1.176l2.98,8.824l-21.214,0l2.981,-8.828c0.233,-0.701 0.887,-1.172 1.626,-1.172l12,0m0,-1l-12,0c-1.168,0 -2.206,0.748 -2.575,1.856l-3.425,10.144l24,0l-3.425,-10.144c-0.369,-1.108 -1.407,-1.856 -2.575,-1.856l0,0z"/>
    </g>
   </g>
  </g>
  <g id="svg_48">
   <path id="svg_49" fill="#F5CE85" d="m32.105,57.5c-1.988,0 -3.605,-1.57 -3.605,-3.5s1.617,-3.5 3.605,-3.5l43.789,0c1.988,0 3.605,1.57 3.605,3.5s-1.617,3.5 -3.605,3.5l-43.789,0z"/>
   <g id="svg_50">
    <path id="svg_51" fill="#967A44" d="m75.895,51c1.712,0 3.105,1.346 3.105,3s-1.393,3 -3.105,3l-43.79,0c-1.712,0 -3.105,-1.346 -3.105,-3s1.393,-3 3.105,-3l43.79,0m0,-1l-43.79,0c-2.267,0 -4.105,1.791 -4.105,4s1.838,4 4.105,4l43.79,0c2.267,0 4.105,-1.791 4.105,-4s-1.838,-4 -4.105,-4l0,0z"/>
   </g>
  </g>
  <g id="svg_52">
   <path id="svg_53" fill="#66798F" d="m76,68l0,6c0,1.105 -0.895,2 -2,2l-4,0c-1.105,0 -2,-0.895 -2,-2l0,-6l8,0z"/>
  </g>
  <g id="svg_54">
   <path id="svg_55" fill="#66798F" d="m40,68l0,6c0,1.105 -0.895,2 -2,2l-4,0c-1.105,0 -2,-0.895 -2,-2l0,-6l8,0z"/>
  </g>
  <g id="svg_56">
   <g id="svg_57">
    <path id="svg_58" fill="#F5CE85" d="m32.5,71.5l0,-12.963l1.956,-4.331l4.024,-14.068c0.632,-1.894 3.266,-3.638 5.52,-3.638l20,0c2.254,0 4.888,1.744 5.525,3.658l3.994,13.979l1.98,4.399l0,12.964l-42.999,0z"/>
   </g>
   <g id="svg_59">
    <path id="svg_60" fill="#967A44" d="m64,37c2.028,0 4.483,1.612 5.038,3.275l4,14l0.02,0.07l0.03,0.067l1.912,4.232l0,12.356l-42,0l0,-12.356l1.911,-4.232l0.03,-0.067l0.02,-0.07l3.987,-13.958c0.569,-1.705 3.024,-3.317 5.052,-3.317l20,0m0,-1l-20,0c-2.337,0 -5.261,1.783 -6,4l-4,14l-2,4.429l0,13.571l44,0l0,-13.571l-2,-4.429l-4,-14c-0.739,-2.217 -3.663,-4 -6,-4l0,0z"/>
   </g>
  </g>
  <circle id="svg_61" fill="#FFFFFF" r="3" cy="61" cx="69"/>
  <circle id="svg_62" fill="#FFFFFF" r="3" cy="61" cx="39"/>
  <g id="svg_63">
   <path id="svg_64" fill="#C2E8FF" d="m35.234,51.5l3.246,-11.363c0.701,-2.099 2.667,-3.637 4.67,-3.637l21.7,0c2.003,0 3.969,1.539 4.676,3.658l3.24,11.342l-37.532,0z"/>
   <g id="svg_65">
    <path id="svg_66" fill="#967A44" d="m64.85,37c1.794,0 3.561,1.395 4.188,3.275l3.065,10.725l-36.206,0l3.052,-10.684c0.64,-1.921 2.407,-3.316 4.201,-3.316l21.7,0m0,-1l-21.7,0c-2.337,0 -4.411,1.783 -5.15,4l-3.429,12l38.857,0l-3.428,-12c-0.739,-2.217 -2.813,-4 -5.15,-4l0,0z"/>
   </g>
  </g>
  <rect id="svg_67" fill="#F5CE85" height="4" width="44.044" y="52" x="31.956"/>
  <g id="svg_68">
   <path id="svg_69" fill="#C8D1DB" d="m42.696,71.5l3.202,-9.484c0.303,-0.908 1.148,-1.516 2.102,-1.516l12,0c0.954,0 1.799,0.608 2.101,1.514l3.203,9.486l-22.608,0z"/>
   <g id="svg_70">
    <path id="svg_71" fill="#66798F" d="m60,61c0.739,0 1.393,0.471 1.627,1.176l2.98,8.824l-21.214,0l2.981,-8.828c0.233,-0.701 0.887,-1.172 1.626,-1.172l12,0m0,-1l-12,0c-1.168,0 -2.206,0.748 -2.575,1.856l-3.425,10.144l24,0l-3.425,-10.144c-0.369,-1.108 -1.407,-1.856 -2.575,-1.856l0,0z"/>
   </g>
  </g>
 </g>
</svg>